<?xml version="1.0" encoding="utf-8"?>
<svg xmlns="http://www.w3.org/2000/svg" viewBox="81.4894 -840 798.5106 680" width="19.9628px" height="17px" preserveAspectRatio="none"><path d="M 690 -760 L 880 -760 L 880 -840 L 610 -840 L 690 -760 Z M 190 -840 L 105 -755 C 89.667 -739.67 81.833 -720.67 81.5 -698 C 81.167 -675.33 88.667 -656 104 -640 L 544 -184 C 559.333 -168 578.167 -160 600.5 -160 C 622.833 -160 641.667 -167.67 657 -183 L 856 -382 C 871.333 -397.33 879 -416.33 879 -439 C 879 -461.67 871.333 -480.67 856 -496 L 520 -840 L 190 -840 Z" id="object-0" style="" fill="white" transform="matrix(0.9999999999999999, 0, 0, 0.9999999999999999, -1.4210854715202004e-14, 0)"/></svg>