<?xml version="1.0" encoding="utf-8"?>
<svg xmlns="http://www.w3.org/2000/svg" height="24px" viewBox="0 -960 960 960" width="24px" fill="#FFFFFF" xmlns:bx="https://boxy-svg.com"><defs><bx:export><bx:file format="svg"/></bx:export></defs><path d="M 80 -880 L 80 -720 L 880 -720 L 880 -880 L 80 -880 Z M 424 -240 L 640 -457 L 480 -617 C 464 -633 445.167 -641 423.5 -641 C 401.833 -641 383 -633 367 -617 L 340 -640 L 140 -640 L 266 -515 C 250 -499 241.667 -479.83 241 -457.5 C 240.333 -435.17 248 -416 264 -400 L 424 -240 Z M 480 -183 L 640 -24 C 656 -8 674.833 0 696.5 0 C 718.167 0 737 -8 753 -24 L 857 -127 C 873 -143 881 -161.83 881 -183.5 C 881 -205.17 873 -224 857 -240 L 697 -400 L 480 -183 Z" style=""/></svg>