<?xml version="1.0" encoding="utf-8"?>
<svg xmlns="http://www.w3.org/2000/svg" viewBox="120 -840 720 720" width="18px" height="18px"><path d="M 611 -499 L 461 -348 L 572 -238 L 543 -209 L 324 -428 L 268 -372 L 486 -153 C 502 -137 520.833 -129 542.5 -129 C 564.167 -129 583 -137 599 -153 L 628 -182 L 678 -132 C 686 -124 695.5 -120 706.5 -120 C 717.5 -120 727 -124 735 -132 L 828 -225 C 836 -233 840 -242.5 840 -253.5 C 840 -264.5 836 -274 828 -282 L 611 -499 Z M 270 -840 L 120 -840 L 120 -690 L 404 -405 L 555 -555 L 270 -840 Z" fill="white" id="object-0" transform="matrix(0.9999999999999999, 0, 0, 0.9999999999999999, -1.4210854715202004e-14, 0)"/></svg>